<svg width="30" height="22" viewBox="0 0 30 22" fill="none" xmlns="http://www.w3.org/2000/svg">
<path d="M10.9882 11.1059L0.437501 20.9402C0.16276 20.5474 0 20.0751 0 19.551V2.64222C0 2.11812 0.16276 1.6471 0.437501 1.25306L10.9882 11.1059ZM17.4765 12.5375C16.7747 13.1929 15.8919 13.5154 15 13.5154C14.1172 13.5154 13.2343 13.1916 12.5234 12.5375L11.6236 11.6897L1.0623 21.5426C1.4308 21.796 1.8683 21.9353 2.33964 21.9353H27.66C28.1314 21.9353 28.5689 21.796 28.9373 21.5426L18.3773 11.691L17.4765 12.5375ZM16.8945 11.8914L28.9375 0.650532C28.569 0.397112 28.1315 0.257812 27.6602 0.257812H2.3398C1.86844 0.257812 1.42314 0.406415 1.05463 0.650532L13.1053 11.8914C14.186 12.8957 15.8138 12.8957 16.8945 11.8914ZM29.5625 1.25309L19.0118 11.1061L29.5625 20.9403C29.8372 20.5476 30 20.0752 30 19.5512V2.64239C30 2.11829 29.8372 1.64581 29.5625 1.25309Z" fill="#29A6DE"/>
</svg>
