<svg width="215" height="23" viewBox="0 0 215 23" fill="none" xmlns="http://www.w3.org/2000/svg">
<path d="M2.87628 1.15533H0V4.02179H2.87628V1.15533Z" fill="#ED1C24"/>
<path d="M3.00112 5.34961H0V17.5653H3.00112V5.34961Z" fill="#D3D3D3"/>
<path d="M5.94922 17.5668V0.705128H8.95034V6.77841C9.87627 5.64352 10.9725 5.07655 12.2399 5.07655C13.6209 5.07655 14.7637 5.61549 15.6682 6.69246C16.5727 7.77037 17.025 9.3172 17.025 11.3338C17.025 13.4196 16.5634 15.0262 15.6421 16.1536C14.7199 17.281 13.6004 17.8443 12.2827 17.8443C11.6351 17.8443 10.9958 17.6696 10.3658 17.3212C9.73575 16.9728 9.19229 16.4572 8.73724 15.7744V17.5687H5.94922V17.5668ZM8.92987 11.1947C8.92987 12.4594 9.11505 13.3953 9.48542 14.0015C10.0047 14.8608 10.6961 15.2896 11.5578 15.2896C12.2204 15.2896 12.7843 14.9851 13.2505 14.3751C13.7168 13.7652 13.9503 12.805 13.9503 11.4936C13.9503 10.0981 13.7158 9.09208 13.245 8.47466C12.775 7.85724 12.1729 7.54901 11.4396 7.54901C10.7203 7.54901 10.1219 7.84977 9.64548 8.45224C9.1681 9.05285 8.92987 9.9673 8.92987 11.1947Z" fill="#D3D3D3"/>
<path d="M21.6821 9.07773L18.9583 8.54906C19.2644 7.3684 19.7911 6.49411 20.5393 5.9262C21.2866 5.35923 22.3977 5.07528 23.8717 5.07528C25.2099 5.07528 26.2075 5.24621 26.8626 5.58715C27.5178 5.92808 27.9784 6.36148 28.2455 6.88736C28.5125 7.4123 28.6456 8.37719 28.6456 9.78015L28.614 13.5528C28.614 14.6261 28.6624 15.4182 28.7582 15.9282C28.8541 16.4382 29.0337 16.9846 29.298 17.5674H26.3285C26.2503 17.3526 26.1535 17.0341 26.04 16.6128C25.9897 16.4214 25.9544 16.2943 25.933 16.2336C25.4202 16.7707 24.8721 17.1733 24.2877 17.4413C23.7042 17.7094 23.0807 17.8439 22.4182 17.8439C21.2503 17.8439 20.33 17.503 19.6571 16.8202C18.9843 16.1374 18.6475 15.2753 18.6475 14.2319C18.6475 13.5416 18.8001 12.9261 19.1072 12.3862C19.4133 11.8454 19.8423 11.4316 20.3942 11.1439C20.946 10.8562 21.7416 10.6049 22.7811 10.3901C24.1835 10.1061 25.1559 9.8418 25.6966 9.59614V9.27389C25.6966 8.65274 25.5542 8.21 25.2695 7.94566C24.9847 7.68132 24.4468 7.54868 23.6568 7.54868C23.1226 7.54868 22.7057 7.66169 22.407 7.88774C22.1092 8.11378 21.8673 8.50982 21.6821 9.07773ZM25.6975 11.6997C25.3132 11.8379 24.7046 12.0023 23.8708 12.1938C23.0379 12.3853 22.4926 12.573 22.2367 12.757C21.8449 13.0559 21.6495 13.4361 21.6495 13.8956C21.6495 14.3487 21.8059 14.7391 22.1195 15.0688C22.4331 15.3986 22.8314 15.5629 23.3153 15.5629C23.8559 15.5629 24.3724 15.3715 24.8637 14.9876C25.2267 14.6961 25.4658 14.3393 25.5794 13.9181C25.6575 13.6416 25.6966 13.1166 25.6966 12.3423V11.6997H25.6975Z" fill="#D3D3D3"/>
<path d="M31.3271 18.3726L34.7554 18.821C34.8122 19.2506 34.9443 19.5458 35.1509 19.7064C35.4356 19.9362 35.8842 20.0511 36.4965 20.0511C37.2801 20.0511 37.8673 19.925 38.259 19.6719C38.5224 19.5028 38.7215 19.231 38.8574 18.8555C38.9495 18.5865 38.996 18.0924 38.996 17.3713V15.5882C38.099 16.9071 36.9665 17.5665 35.5994 17.5665C34.0751 17.5665 32.8691 16.8725 31.9785 15.4845C31.2806 14.3879 30.9316 13.0232 30.9316 11.3895C30.9316 9.34207 31.3895 7.77752 32.3042 6.6968C33.219 5.61516 34.3571 5.07528 35.7167 5.07528C37.1191 5.07528 38.2767 5.73847 39.1877 7.06484V5.35083H41.9972V16.3121C41.9972 17.7533 41.8864 18.8312 41.6659 19.5439C41.4453 20.2566 41.1355 20.817 40.7362 21.2234C40.337 21.6297 39.8057 21.9482 39.1394 22.178C38.4731 22.4077 37.6318 22.5227 36.6138 22.5227C34.6912 22.5227 33.3279 22.1677 32.5229 21.4587C31.718 20.7498 31.316 19.8503 31.316 18.7612C31.3169 18.6556 31.3197 18.5258 31.3271 18.3726ZM34.0081 11.2065C34.0081 12.502 34.2417 13.451 34.7079 14.0535C35.1742 14.656 35.7493 14.9567 36.4332 14.9567C37.1665 14.9567 37.7863 14.6485 38.2916 14.0311C38.7969 13.4137 39.05 12.4992 39.05 11.2877C39.05 10.0221 38.8081 9.08333 38.3242 8.46965C37.8403 7.85598 37.2279 7.54962 36.4872 7.54962C35.7679 7.54962 35.1751 7.85038 34.7089 8.45285C34.2408 9.05345 34.0081 9.97163 34.0081 11.2065Z" fill="#D3D3D3"/>
<path d="M44.9668 17.5668V0.705128H47.9679V17.5668H44.9668Z" fill="#D3D3D3"/>
<path d="M50.3486 11.2868C50.3486 10.2136 50.5943 9.17394 51.0857 8.16982C51.577 7.16571 52.2731 6.39885 53.1739 5.86924C54.0747 5.33962 55.0806 5.07528 56.1908 5.07528C57.9068 5.07528 59.3129 5.67495 60.4101 6.87522C61.5063 8.0755 62.0553 9.59148 62.0553 11.4241C62.0553 13.2726 61.5016 14.8035 60.3942 16.0188C59.2869 17.234 57.8928 17.8421 56.2132 17.8421C55.1737 17.8421 54.1817 17.5889 53.239 17.0827C52.2954 16.5764 51.5779 15.8348 51.0866 14.8568C50.5943 13.8807 50.3486 12.6898 50.3486 11.2868ZM53.4251 11.4596C53.4251 12.6711 53.6922 13.5986 54.2264 14.2431C54.7605 14.8876 55.4194 15.2089 56.202 15.2089C56.9855 15.2089 57.6425 14.8867 58.173 14.2431C58.7034 13.5986 58.9686 12.6636 58.9686 11.4362C58.9686 10.2397 58.7034 9.31967 58.173 8.6761C57.6425 8.0316 56.9855 7.71027 56.202 7.71027C55.4184 7.71027 54.7605 8.03253 54.2264 8.6761C53.6922 9.31967 53.4251 10.2481 53.4251 11.4596Z" fill="#D3D3D3"/>
<path d="M64.2773 17.5668V0.705128H67.2785V6.77841C68.2044 5.64352 69.3006 5.07655 70.5681 5.07655C71.9491 5.07655 73.0918 5.61549 73.9963 6.69246C74.9008 7.77037 75.3531 9.3172 75.3531 11.3338C75.3531 13.4196 74.8915 15.0262 73.9703 16.1536C73.0481 17.281 71.9286 17.8443 70.6109 17.8443C69.9632 17.8443 69.3239 17.6696 68.6939 17.3212C68.0639 16.9728 67.5204 16.4572 67.0654 15.7744V17.5687H64.2773V17.5668ZM67.2571 11.1947C67.2571 12.4594 67.4422 13.3953 67.8126 14.0015C68.3319 14.8608 69.0233 15.2896 69.885 15.2896C70.5476 15.2896 71.1115 14.9851 71.5777 14.3751C72.044 13.7652 72.2775 12.805 72.2775 11.4936C72.2775 10.0981 72.043 9.09208 71.5722 8.47466C71.1022 7.85724 70.5001 7.54901 69.7668 7.54901C69.0475 7.54901 68.4491 7.84977 67.9727 8.45224C67.4962 9.05285 67.2571 9.9673 67.2571 11.1947Z" fill="#D3D3D3"/>
<path d="M80.0102 9.07773L77.2864 8.54906C77.5926 7.3684 78.1193 6.49411 78.8675 5.9262C79.6147 5.35923 80.7258 5.07528 82.1999 5.07528C83.538 5.07528 84.5356 5.24621 85.1907 5.58715C85.8459 5.92808 86.3065 6.36148 86.5736 6.88736C86.8407 7.4123 86.9737 8.37719 86.9737 9.78015L86.9421 13.5528C86.9421 14.6261 86.9905 15.4182 87.0863 15.9282C87.1822 16.4382 87.3618 16.9846 87.6261 17.5674H84.6566C84.5784 17.3526 84.4816 17.0341 84.3681 16.6128C84.3179 16.4214 84.2825 16.2943 84.2611 16.2336C83.7483 16.7707 83.2002 17.1733 82.6158 17.4413C82.0324 17.7094 81.4089 17.8439 80.7463 17.8439C79.5784 17.8439 78.6581 17.503 77.9853 16.8202C77.3125 16.1374 76.9756 15.2753 76.9756 14.2319C76.9756 13.5416 77.1282 12.9261 77.4353 12.3862C77.7415 11.8454 78.1705 11.4316 78.7223 11.1439C79.2741 10.8562 80.0698 10.6049 81.1092 10.3901C82.5116 10.1061 83.4841 9.8418 84.0247 9.59614V9.27389C84.0247 8.65274 83.8823 8.21 83.5976 7.94566C83.3128 7.68132 82.775 7.54868 81.9849 7.54868C81.4507 7.54868 81.0338 7.66169 80.7351 7.88774C80.4373 8.11378 80.1954 8.50982 80.0102 9.07773ZM84.0257 11.6997C83.6413 11.8379 83.0327 12.0023 82.1989 12.1938C81.3661 12.3853 80.8207 12.573 80.5648 12.757C80.1731 13.0559 79.9776 13.4361 79.9776 13.8956C79.9776 14.3487 80.134 14.7391 80.4476 15.0688C80.7612 15.3986 81.1595 15.5629 81.6434 15.5629C82.184 15.5629 82.7005 15.3715 83.1919 14.9876C83.5548 14.6961 83.7939 14.3393 83.9075 13.9181C83.9856 13.6416 84.0247 13.1166 84.0247 12.3423V11.6997H84.0257Z" fill="#D3D3D3"/>
<path d="M89.9326 17.5668V0.705128H92.9337V17.5668H89.9326Z" fill="#D3D3D3"/>
<path d="M94.9531 14.0812L97.9654 13.5871C98.0938 14.2157 98.3535 14.693 98.7452 15.019C99.137 15.345 99.6851 15.5075 100.39 15.5075C101.167 15.5075 101.75 15.3544 102.142 15.0471C102.405 14.8322 102.537 14.5445 102.537 14.184C102.537 13.9383 102.466 13.7356 102.323 13.574C102.173 13.4209 101.839 13.2789 101.319 13.1481C98.8978 12.5727 97.3633 12.0478 96.7156 11.5723C95.8186 10.9129 95.37 9.99657 95.37 8.82338C95.37 7.76509 95.7581 6.87585 96.5342 6.15476C97.3103 5.43366 98.5135 5.07313 100.144 5.07313C101.696 5.07313 102.85 5.34587 103.605 5.8895C104.359 6.43406 104.88 7.23921 105.164 8.30497L102.334 8.86822C102.213 8.39278 101.983 8.0285 101.645 7.77537C101.306 7.52224 100.824 7.39613 100.198 7.39613C99.4078 7.39613 98.8411 7.51476 98.4996 7.75295C98.2716 7.92202 98.158 8.14059 98.158 8.40866C98.158 8.63844 98.2576 8.8346 98.4568 8.99526C98.7275 9.21009 99.6619 9.51273 101.261 9.9041C102.859 10.2955 103.975 10.7746 104.609 11.3416C105.235 11.917 105.549 12.7184 105.549 13.7459C105.549 14.8658 105.114 15.8279 104.246 16.6331C103.377 17.4383 102.092 17.8408 100.39 17.8408C98.8457 17.8408 97.622 17.5036 96.7212 16.8283C95.8195 16.1558 95.2304 15.2395 94.9531 14.0812Z" fill="#D3D3D3"/>
<path d="M114.744 13.6789L117.735 14.2198C117.351 15.4004 116.743 16.2999 115.914 16.9173C115.085 17.5348 114.047 17.843 112.8 17.843C110.828 17.843 109.368 17.149 108.421 15.761C107.674 14.6494 107.3 13.2455 107.3 11.5511C107.3 9.52701 107.791 7.94192 108.774 6.79489C109.757 5.64879 110.999 5.07528 112.502 5.07528C114.189 5.07528 115.521 5.67495 116.497 6.87522C117.472 8.0755 117.938 9.91371 117.896 12.3909H110.377C110.399 13.3492 110.641 14.0955 111.103 14.628C111.566 15.1613 112.143 15.4275 112.833 15.4275C113.303 15.4275 113.698 15.2893 114.019 15.0137C114.339 14.7372 114.581 14.2926 114.744 13.6789ZM114.915 10.4125C114.893 9.47751 114.669 8.76577 114.242 8.27912C113.815 7.79248 113.295 7.54868 112.682 7.54868C112.027 7.54868 111.486 7.80555 111.058 8.31928C110.631 8.83302 110.421 9.53076 110.428 10.4125H114.915Z" fill="#D3D3D3"/>
<path d="M122.583 9.07773L119.86 8.54906C120.166 7.3684 120.693 6.49411 121.441 5.9262C122.188 5.35923 123.299 5.07528 124.773 5.07528C126.111 5.07528 127.109 5.24621 127.764 5.58715C128.419 5.92808 128.88 6.36148 129.147 6.88736C129.414 7.4123 129.547 8.37719 129.547 9.78015L129.515 13.5528C129.515 14.6261 129.564 15.4182 129.66 15.9282C129.755 16.4382 129.935 16.9846 130.199 17.5674H127.23C127.152 17.3526 127.055 17.0341 126.941 16.6128C126.891 16.4214 126.856 16.2943 126.834 16.2336C126.322 16.7707 125.774 17.1733 125.19 17.4413C124.606 17.7094 123.983 17.8439 123.321 17.8439C122.153 17.8439 121.232 17.503 120.559 16.8202C119.887 16.1374 119.55 15.2753 119.55 14.2319C119.55 13.5416 119.702 12.9261 120.009 12.3862C120.315 11.8454 120.744 11.4316 121.296 11.1439C121.847 10.8562 122.643 10.6049 123.683 10.3901C125.085 10.1061 126.057 9.8418 126.598 9.59614V9.27389C126.598 8.65274 126.456 8.21 126.171 7.94566C125.886 7.68132 125.348 7.54868 124.558 7.54868C124.024 7.54868 123.608 7.66169 123.308 7.88774C123.011 8.11378 122.769 8.50982 122.583 9.07773ZM126.6 11.6997C126.216 11.8379 125.607 12.0023 124.773 12.1938C123.94 12.3853 123.395 12.573 123.139 12.757C122.747 13.0559 122.552 13.4361 122.552 13.8956C122.552 14.3487 122.708 14.7391 123.022 15.0688C123.335 15.3986 123.734 15.5629 124.218 15.5629C124.758 15.5629 125.275 15.3715 125.766 14.9876C126.129 14.6961 126.367 14.3393 126.482 13.9181C126.56 13.6416 126.599 13.1166 126.599 12.3423V11.6997H126.6Z" fill="#D3D3D3"/>
<path d="M135.379 17.5674H132.378V5.35176H135.166V7.08819C135.642 6.26809 136.072 5.72725 136.453 5.46665C136.834 5.20605 137.266 5.07528 137.751 5.07528C138.435 5.07528 139.093 5.27891 139.727 5.68523L138.797 8.50329C138.292 8.15021 137.822 7.97368 137.387 7.97368C136.967 7.97368 136.611 8.09791 136.319 8.34731C136.027 8.5967 135.797 9.04692 135.63 9.6989C135.463 10.3509 135.379 11.7155 135.379 13.7938V17.5674Z" fill="#D3D3D3"/>
<path d="M150.909 8.96284L147.951 9.53824C147.851 8.90214 147.625 8.42296 147.273 8.1007C146.92 7.77845 146.462 7.6178 145.9 7.6178C145.153 7.6178 144.556 7.89615 144.111 8.45191C143.667 9.00768 143.444 9.93802 143.444 11.241C143.444 12.6907 143.67 13.7144 144.123 14.3122C144.575 14.91 145.182 15.2089 145.944 15.2089C146.513 15.2089 146.979 15.0343 147.343 14.6859C147.706 14.3374 147.963 13.7368 148.112 12.8859L151.06 13.4267C150.754 14.8839 150.167 15.9842 149.298 16.7277C148.428 17.4712 147.264 17.843 145.805 17.843C144.146 17.843 142.823 17.2797 141.837 16.1523C140.851 15.0249 140.357 13.465 140.357 11.4708C140.357 9.45417 140.852 7.88402 141.842 6.76034C142.831 5.63666 144.17 5.07528 145.858 5.07528C147.239 5.07528 148.338 5.39567 149.153 6.0355C149.968 6.67534 150.553 7.65142 150.909 8.96284Z" fill="#D3D3D3"/>
<path d="M156.175 0.70405V6.90342C157.144 5.68446 158.3 5.07454 159.646 5.07454C160.336 5.07454 160.96 5.21277 161.515 5.48832C162.07 5.7648 162.488 6.11695 162.77 6.54662C163.051 6.97629 163.244 7.45173 163.347 7.97294C163.45 8.49414 163.501 9.30304 163.501 10.3996V17.5658H160.5V11.1132C160.5 9.83265 160.443 9.02002 160.329 8.67442C160.214 8.32975 160.013 8.05513 159.725 7.85244C159.437 7.64975 159.075 7.54793 158.641 7.54793C158.142 7.54793 157.697 7.6787 157.306 7.9393C156.914 8.1999 156.627 8.59316 156.446 9.1181C156.264 9.64304 156.173 10.4202 156.173 11.4476V17.5667H153.172V0.704985H156.175V0.70405Z" fill="#D3D3D3"/>
<path d="M166.546 17.5659V14.334H169.547V17.5659H166.546Z" fill="#D3D3D3"/>
<path d="M182.514 8.96284L179.555 9.53824C179.456 8.90214 179.23 8.42296 178.877 8.1007C178.524 7.77845 178.067 7.6178 177.504 7.6178C176.757 7.6178 176.161 7.89615 175.716 8.45191C175.271 9.00768 175.049 9.93802 175.049 11.241C175.049 12.6907 175.275 13.7144 175.727 14.3122C176.179 14.91 176.786 15.2089 177.548 15.2089C178.118 15.2089 178.584 15.0343 178.948 14.6859C179.311 14.3374 179.568 13.7368 179.716 12.8859L182.665 13.4267C182.358 14.8839 181.771 15.9842 180.902 16.7277C180.033 17.4712 178.869 17.843 177.41 17.843C175.75 17.843 174.428 17.2797 173.442 16.1523C172.455 15.0249 171.962 13.465 171.962 11.4708C171.962 9.45417 172.457 7.88402 173.446 6.76034C174.435 5.63666 175.775 5.07528 177.463 5.07528C178.844 5.07528 179.943 5.39567 180.758 6.0355C181.572 6.67534 182.157 7.65142 182.514 8.96284Z" fill="#D3D3D3"/>
<path d="M184.094 11.2868C184.094 10.2136 184.339 9.17394 184.831 8.16982C185.322 7.16571 186.018 6.39885 186.919 5.86924C187.82 5.33962 188.826 5.07528 189.936 5.07528C191.652 5.07528 193.058 5.67495 194.155 6.87522C195.251 8.0755 195.8 9.59148 195.8 11.4241C195.8 13.2726 195.246 14.8035 194.138 16.0188C193.031 17.234 191.637 17.8421 189.957 17.8421C188.918 17.8421 187.926 17.5889 186.983 17.0827C186.04 16.5764 185.322 15.8348 184.831 14.8568C184.339 13.8807 184.094 12.6898 184.094 11.2868ZM187.17 11.4596C187.17 12.6711 187.437 13.5986 187.971 14.2431C188.506 14.8876 189.164 15.2089 189.947 15.2089C190.731 15.2089 191.387 14.8867 191.918 14.2431C192.449 13.5986 192.714 12.6636 192.714 11.4362C192.714 10.2397 192.449 9.31967 191.918 8.6761C191.388 8.0316 190.731 7.71027 189.947 7.71027C189.164 7.71027 188.505 8.03253 187.971 8.6761C187.437 9.31967 187.17 10.2481 187.17 11.4596Z" fill="#D3D3D3"/>
<path d="M197.926 5.35083H200.692V7.01905C201.682 5.72351 202.861 5.07528 204.228 5.07528C204.954 5.07528 205.584 5.23593 206.118 5.55819C206.652 5.88044 207.09 6.36708 207.432 7.01905C207.93 6.36708 208.467 5.88044 209.044 5.55819C209.621 5.23593 210.237 5.07528 210.892 5.07528C211.725 5.07528 212.431 5.25741 213.008 5.6217C213.585 5.98598 214.016 6.52122 214.3 7.22643C214.507 7.74764 214.61 8.59109 214.61 9.7568V17.5665H211.609V10.5844C211.609 9.37291 211.506 8.59108 211.299 8.23801C211.022 7.77845 210.594 7.54775 210.018 7.54775C209.597 7.54775 209.203 7.68598 208.832 7.96153C208.462 8.23801 208.195 8.64246 208.031 9.17488C207.867 9.70823 207.785 10.5498 207.785 11.6997V17.5656H204.784V10.8711C204.784 9.683 204.731 8.91614 204.624 8.57054C204.517 8.22494 204.351 7.969 204.127 7.79994C203.903 7.63181 203.599 7.54681 203.214 7.54681C202.752 7.54681 202.335 7.68132 201.964 7.9494C201.594 8.21747 201.329 8.6051 201.169 9.11137C201.009 9.61763 200.929 10.4573 200.929 11.6305V17.5656H197.928V5.35083H197.926Z" fill="#D3D3D3"/>
</svg>
