<svg width="30" height="31" viewBox="0 0 30 31" fill="none" xmlns="http://www.w3.org/2000/svg">
<path d="M17.005 10.4039C18.5273 10.4039 19.7631 11.6825 19.7631 13.251C19.7631 13.5781 20.0209 13.8442 20.3377 13.8442C20.6546 13.8442 20.9124 13.5781 20.9124 13.251C20.9124 11.0238 19.1567 9.21582 17.0034 9.21582C16.6865 9.21582 16.4287 9.48194 16.4287 9.80903C16.4287 10.1361 16.6865 10.4022 17.0034 10.4022L17.005 10.4039Z" fill="#29A6DE"/>
<path d="M17.0053 5.84475C20.9615 5.84475 24.1807 9.16761 24.1807 13.2517C24.1807 13.5787 24.4385 13.8449 24.7553 13.8449C25.0722 13.8449 25.33 13.5787 25.33 13.2517C25.33 8.51354 21.5954 4.65842 17.0053 4.65842C16.6885 4.65842 16.4307 4.92454 16.4307 5.25162C16.4307 5.57871 16.6884 5.84475 17.0053 5.84475Z" fill="#29A6DE"/>
<path d="M17.0053 0.0969842C16.6885 0.0969842 16.4307 0.363109 16.4307 0.690192C16.4307 1.01727 16.6885 1.2834 17.0053 1.2834C23.3987 1.2834 28.5978 6.65066 28.5978 13.2499C28.5978 13.577 28.8557 13.8431 29.1725 13.8431C29.4894 13.8431 29.7472 13.577 29.7472 13.2499C29.7472 5.99602 24.0322 0.0966797 17.005 0.0966797L17.0053 0.0969842Z" fill="#29A6DE"/>
<path d="M10.8841 11.364C11.548 10.6563 11.6028 10.2296 11.1203 9.45356C10.1106 7.82413 9.09957 6.25262 8.12596 4.78357C7.76446 4.23942 7.47641 4.00006 7.06018 4.00006C6.8427 4.00006 6.5921 4.06548 6.27524 4.1859C5.3722 4.53231 4.47204 4.89805 3.57619 5.25932C2.9756 5.50314 2.37789 5.74694 1.77731 5.98185C0.524292 6.47694 0.224718 6.9289 0.254952 8.27734C0.318325 11.0932 0.940526 13.9301 2.10999 16.7043C3.76198 20.6249 6.42054 23.9311 10.0228 26.5345C13.3887 28.9697 17.3424 30.3182 21.7694 30.5384C23.119 30.6038 23.5755 30.2872 24.0926 28.9164C24.6788 27.3672 25.2506 25.8493 25.7921 24.3343C26.1493 23.3367 26.0398 22.9903 25.1757 22.3852C23.7743 21.404 22.2894 20.3871 20.7626 19.3701C19.9546 18.8334 19.4938 18.8869 18.7981 19.5991C18.0391 20.3722 17.1577 21.2701 16.305 22.1756C15.7851 22.7271 15.2104 22.8223 14.5911 22.4536C11.8705 20.8316 9.68696 18.579 8.10115 15.7588C7.73244 15.1076 7.8203 14.4876 8.35608 13.9732C8.67293 13.6684 8.98258 13.3413 9.28503 13.0262C9.30376 13.0068 9.32248 12.9875 9.33976 12.9652L10.0628 12.2159C10.3393 11.9304 10.6158 11.6494 10.888 11.3595L10.8841 11.364Z" fill="#29A6DE"/>
</svg>
